<svg width="12" height="12" viewBox="0 0 12 12" fill="none" xmlns="http://www.w3.org/2000/svg">
<path d="M3.91783 1.04172H8.08283C9.66949 1.04172 10.9587 2.33088 10.9587 3.91755V8.08255C10.9587 8.84527 10.6557 9.57675 10.1163 10.1161C9.57702 10.6554 8.84554 10.9584 8.08283 10.9584H3.91783C2.33116 10.9584 1.04199 9.66922 1.04199 8.08255V3.91755C1.04199 3.15483 1.34498 2.42335 1.8843 1.88403C2.42363 1.34471 3.15511 1.04172 3.91783 1.04172ZM3.81866 2.03338C3.34525 2.03338 2.89123 2.22145 2.55647 2.5562C2.22172 2.89095 2.03366 3.34497 2.03366 3.81838V8.18172C2.03366 9.16843 2.83195 9.96672 3.81866 9.96672H8.18199C8.6554 9.96672 9.10943 9.77866 9.44418 9.4439C9.77893 9.10915 9.96699 8.65513 9.96699 8.18172V3.81838C9.96699 2.83168 9.1687 2.03338 8.18199 2.03338H3.81866ZM8.60345 2.77713C8.76783 2.77713 8.92548 2.84243 9.04171 2.95867C9.15794 3.0749 9.22324 3.23255 9.22324 3.39693C9.22324 3.5613 9.15794 3.71895 9.04171 3.83518C8.92548 3.95142 8.76783 4.01672 8.60345 4.01672C8.43907 4.01672 8.28142 3.95142 8.16519 3.83518C8.04896 3.71895 7.98366 3.5613 7.98366 3.39693C7.98366 3.23255 8.04896 3.0749 8.16519 2.95867C8.28142 2.84243 8.43907 2.77713 8.60345 2.77713ZM6.00033 3.52088C6.65784 3.52088 7.28843 3.78208 7.75336 4.24702C8.2183 4.71195 8.47949 5.34254 8.47949 6.00005C8.47949 6.65757 8.2183 7.28815 7.75336 7.75309C7.28843 8.21802 6.65784 8.47922 6.00033 8.47922C5.34281 8.47922 4.71222 8.21802 4.24729 7.75309C3.78236 7.28815 3.52116 6.65757 3.52116 6.00005C3.52116 5.34254 3.78236 4.71195 4.24729 4.24702C4.71222 3.78208 5.34281 3.52088 6.00033 3.52088ZM6.00033 4.51255C5.60582 4.51255 5.22746 4.66927 4.9485 4.94823C4.66954 5.22719 4.51283 5.60554 4.51283 6.00005C4.51283 6.39456 4.66954 6.77291 4.9485 7.05187C5.22746 7.33083 5.60582 7.48755 6.00033 7.48755C6.39483 7.48755 6.77319 7.33083 7.05215 7.05187C7.33111 6.77291 7.48783 6.39456 7.48783 6.00005C7.48783 5.60554 7.33111 5.22719 7.05215 4.94823C6.77319 4.66927 6.39483 4.51255 6.00033 4.51255Z" fill="#828282"/>
</svg>
