<svg width="140" height="52" viewBox="0 0 140 52" fill="none" xmlns="http://www.w3.org/2000/svg">
<g clip-path="url(#clip0_1430_587)">
<path d="M122.438 33.2051H126.892V18.7119H122.438V33.2051ZM128.5 18.7119V20.3565H133.446V33.2051H135.05V20.3565H140V18.7119H128.5Z" fill="black"/>
<path d="M111.902 18.125C110.387 18.125 108.905 18.5848 107.645 19.4464C106.385 20.3079 105.403 21.5325 104.823 22.9652C104.243 24.3979 104.091 25.9744 104.386 27.4953C104.682 29.0163 105.412 30.4134 106.484 31.5099C107.555 32.6064 108.921 33.3532 110.407 33.6557C111.894 33.9583 113.435 33.803 114.835 33.2096C116.235 32.6161 117.432 31.6111 118.274 30.3217C119.116 29.0324 119.565 27.5164 119.565 25.9657C119.566 24.9359 119.368 23.9162 118.983 22.9647C118.598 22.0133 118.033 21.1488 117.322 20.4206C116.61 19.6925 115.765 19.1149 114.835 18.721C113.905 18.3272 112.909 18.1246 111.902 18.125V18.125ZM111.902 32.1618C110.704 32.1624 109.532 31.7992 108.535 31.1183C107.538 30.4374 106.761 29.4692 106.302 28.3364C105.844 27.2035 105.723 25.9569 105.957 24.7541C106.191 23.5513 106.768 22.4465 107.615 21.5793C108.463 20.7122 109.543 20.1217 110.718 19.8826C111.894 19.6435 113.112 19.7665 114.219 20.2361C115.326 20.7057 116.273 21.5007 116.938 22.5206C117.604 23.5404 117.959 24.7394 117.958 25.9657C117.958 27.609 117.32 29.185 116.184 30.347C115.049 31.509 113.508 32.1618 111.902 32.1618ZM95.7479 18.7147H89.3765V33.2197H95.7479C96.6908 33.2392 97.628 33.066 98.5046 32.7103C99.3813 32.3546 100.18 31.8235 100.853 31.1481C101.527 30.4727 102.062 29.6666 102.427 28.777C102.793 27.8874 102.981 26.9321 102.981 25.9672C102.981 25.0022 102.793 24.047 102.427 23.1574C102.062 22.2678 101.527 21.4617 100.853 20.7863C100.18 20.1109 99.3813 19.5798 98.5046 19.2241C97.628 18.8684 96.6908 18.6952 95.7479 18.7147V18.7147ZM95.7479 28.6622H93.8336V23.2721H95.7566C96.1098 23.2601 96.4618 23.321 96.7916 23.451C97.1214 23.5811 97.4223 23.7777 97.6763 24.0291C97.9303 24.2805 98.1323 24.5817 98.2703 24.9146C98.4083 25.2476 98.4794 25.6055 98.4794 25.9672C98.4794 26.3288 98.4083 26.6868 98.2703 27.0197C98.1323 27.3527 97.9303 27.6538 97.6763 27.9053C97.4223 28.1567 97.1214 28.3533 96.7916 28.4833C96.4618 28.6134 96.1098 28.6742 95.7566 28.6622H95.7479Z" fill="black"/>
<path d="M57.6323 23.2721H61.6869V33.2197H66.141V23.2721H70.1956V18.7147H57.6323V23.2721ZM78.8317 18.125C77.3161 18.125 75.8345 18.5848 74.5744 19.4464C73.3142 20.3079 72.332 21.5325 71.752 22.9652C71.172 24.3979 71.0202 25.9744 71.3159 27.4953C71.6116 29.0163 72.3414 30.4134 73.4131 31.5099C74.4848 32.6064 75.8502 33.3532 77.3367 33.6557C78.8232 33.9583 80.364 33.803 81.7642 33.2096C83.1645 32.6161 84.3613 31.6111 85.2033 30.3217C86.0454 29.0324 86.4948 27.5164 86.4948 25.9657C86.4948 23.8862 85.6874 21.8919 84.2503 20.4215C82.8132 18.9511 80.8641 18.125 78.8317 18.125V18.125ZM78.8317 32.1618C77.6333 32.1618 76.4618 31.7982 75.4654 31.1169C74.469 30.4356 73.6925 29.4672 73.234 28.3343C72.7755 27.2014 72.6557 25.9548 72.8897 24.7523C73.1237 23.5497 73.701 22.4451 74.5486 21.5783C75.3963 20.7114 76.4761 20.1213 77.6515 19.8824C78.827 19.6436 80.0452 19.7667 81.1523 20.2364C82.2593 20.706 83.2053 21.501 83.8707 22.5209C84.5361 23.5407 84.8909 24.7395 84.8903 25.9657C84.8903 26.7796 84.7336 27.5856 84.4291 28.3375C84.1246 29.0895 83.6783 29.7726 83.1156 30.348C82.553 30.9234 81.8851 31.3798 81.15 31.691C80.415 32.0022 79.6272 32.1622 78.8317 32.1618V32.1618Z" fill="black"/>
<path d="M39.9981 29.9453L24.4867 20.7831C24.1353 20.5776 23.8432 20.2809 23.6398 19.9229C23.4364 19.565 23.3289 19.1584 23.3282 18.7444V0.965002C23.3259 0.797961 23.3671 0.633303 23.4477 0.488003C23.5283 0.342702 23.6453 0.222016 23.7866 0.138385C23.9279 0.0547544 24.0885 0.0112044 24.2518 0.0122245C24.4151 0.0132447 24.5751 0.0587981 24.7154 0.144189L40.2269 9.31241C40.578 9.51739 40.8701 9.81357 41.0735 10.171C41.2769 10.5285 41.3845 10.9345 41.3854 11.3481V29.1275C41.3872 29.2943 41.3455 29.4586 41.2648 29.6034C41.184 29.7483 41.0669 29.8686 40.9257 29.9519C40.7844 30.0351 40.6241 30.0784 40.461 30.0773C40.298 30.0761 40.1382 30.0306 39.9981 29.9453V29.9453Z" fill="#0597F2"/>
<path d="M43.4155 16.6551L27.904 25.8233C27.5527 26.0288 27.2606 26.3255 27.0572 26.6835C26.8538 27.0414 26.7463 27.448 26.7456 27.862V45.6414C26.7452 45.8066 26.7874 45.969 26.868 46.1122C26.9485 46.2554 27.0646 46.3744 27.2044 46.457C27.3442 46.5397 27.5029 46.5831 27.6644 46.583C27.8259 46.5829 27.9844 46.5392 28.1241 46.4563L43.6443 37.294C43.9954 37.089 44.2874 36.7928 44.4909 36.4354C44.6943 36.0779 44.8018 35.6719 44.8027 35.2583V17.4789C44.8047 17.312 44.7632 17.1475 44.6827 17.0023C44.6021 16.8572 44.4853 16.7365 44.3441 16.6527C44.203 16.5689 44.0427 16.525 43.8795 16.5254C43.7163 16.5258 43.5562 16.5706 43.4155 16.6551V16.6551Z" fill="#49D907"/>
<path d="M41.3768 17.8613V29.1216C41.3763 29.2865 41.3335 29.4483 41.2527 29.591C41.172 29.7337 41.056 29.8522 40.9165 29.9346C40.777 30.0171 40.6188 30.0607 40.4576 30.061C40.2965 30.0613 40.1381 30.0184 39.9982 29.9365L30.4585 24.3152L41.3768 17.8613Z" fill="#0597AB"/>
<path d="M1.37864 35.279L16.8901 26.1078C17.2403 25.9009 17.5314 25.6039 17.7347 25.2463C17.9379 24.8886 18.0461 24.4828 18.0485 24.0691V6.28974C18.0489 6.12451 18.0067 5.96211 17.9262 5.81891C17.8456 5.67571 17.7296 5.55678 17.5897 5.47413C17.4499 5.39147 17.2913 5.34802 17.1298 5.34814C16.9683 5.34827 16.8097 5.39198 16.67 5.47485L1.15854 14.6342C0.807196 14.8396 0.515069 15.1363 0.311666 15.4943C0.108264 15.8523 0.000791541 16.2588 0.000104409 16.6729V34.4522C-0.00234566 34.6185 0.0383639 34.7824 0.118076 34.9272C0.197788 35.0721 0.313647 35.1927 0.453822 35.2768C0.593997 35.3609 0.753466 35.4054 0.915945 35.4057C1.07842 35.4061 1.23809 35.3624 1.37864 35.279V35.279Z" fill="#F24607"/>
<path d="M4.79606 21.9802L20.3075 31.1484C20.6573 31.355 20.9482 31.6515 21.1514 32.0086C21.3546 32.3657 21.463 32.7709 21.466 33.1841V50.9635C21.4655 51.1283 21.4227 51.2902 21.3419 51.4329C21.2612 51.5755 21.1452 51.694 21.0057 51.7765C20.8662 51.859 20.708 51.9026 20.5468 51.9029C20.3857 51.9032 20.2273 51.8603 20.0874 51.7784L4.56727 42.619C4.21615 42.414 3.92414 42.1179 3.72073 41.7604C3.51732 41.403 3.40973 40.9969 3.40883 40.5833V22.8039C3.40597 22.6366 3.44683 22.4716 3.52719 22.3259C3.60755 22.1802 3.72449 22.059 3.86592 21.9751C4.00735 21.8911 4.16814 21.8473 4.33167 21.8482C4.49519 21.8491 4.65551 21.8946 4.79606 21.9802V21.9802Z" fill="#EAF205"/>
<path d="M14.3329 27.6161L3.41748 34.0671V22.8068C3.4171 22.6416 3.45931 22.4792 3.53986 22.336C3.62042 22.1928 3.73646 22.0739 3.87628 21.9912C4.01611 21.9086 4.17477 21.8651 4.33625 21.8652C4.49773 21.8654 4.65632 21.9091 4.79602 21.9919L14.3329 27.6161Z" fill="#EAB705"/>
</g>
<defs>
<clipPath id="clip0_1430_587">
<rect width="140" height="52" fill="white"/>
</clipPath>
</defs>
</svg>
