<svg width="141" height="235" viewBox="0 0 141 235" fill="none" xmlns="http://www.w3.org/2000/svg">
<path d="M130.167 233.969L9.04637 162.353C6.3029 160.747 4.02182 158.428 2.43355 155.63C0.845291 152.832 0.00610088 149.654 0.000735414 146.417V7.4474C-0.0175236 6.14174 0.304519 4.85472 0.933667 3.719C1.56281 2.58328 2.47629 1.63995 3.57996 0.986258C4.68363 0.332566 5.93753 -0.00783679 7.21243 0.000136931C8.48732 0.00811065 9.73708 0.364173 10.8329 1.03162L131.954 72.6938C134.696 74.2961 136.976 76.6111 138.564 79.4051C140.152 82.199 140.993 85.3729 141 88.6059V227.576C141.014 228.88 140.689 230.164 140.058 231.296C139.427 232.429 138.513 233.369 137.41 234.019C136.307 234.67 135.055 235.009 133.782 235C132.509 234.991 131.262 234.635 130.167 233.969V233.969Z" fill="#F4F4F4"/>
</svg>
