<svg width="141" height="235" viewBox="0 0 141 235" fill="none" xmlns="http://www.w3.org/2000/svg">
<path d="M130.167 1.01431L9.0457 72.6944C6.30221 74.3008 4.02114 76.6205 2.43287 79.4192C0.844597 82.2178 0.00538608 85.3963 2.05949e-05 88.6336V227.638C-0.0030015 228.93 0.326624 230.2 0.955627 231.319C1.58463 232.439 2.49075 233.369 3.58257 234.015C4.6744 234.661 5.91328 235.001 7.17422 235C8.43515 234.999 9.67353 234.657 10.7644 234.009L131.954 162.376C134.696 160.773 136.976 158.457 138.564 155.663C140.152 152.868 140.992 149.693 140.999 146.46V7.45486C141.015 6.1497 140.691 4.86385 140.062 3.72888C139.433 2.59391 138.52 1.65057 137.418 0.995385C136.317 0.340201 135.064 -0.00330021 133.79 2.38985e-05C132.516 0.00334801 131.266 0.353381 130.167 1.01431V1.01431Z" fill="#D7D7D7"/>
</svg>
