<svg width="141" height="235" viewBox="0 0 141 235" fill="none" xmlns="http://www.w3.org/2000/svg">
<path id="Vector" d="M10.8332 1.0322L131.954 72.7191C134.685 74.3344 136.957 76.6531 138.543 79.4452C140.13 82.2373 140.977 85.4058 141 88.6366V227.655C140.996 228.944 140.662 230.209 140.032 231.325C139.401 232.44 138.496 233.367 137.406 234.012C136.317 234.657 135.081 234.997 133.823 235C132.565 235.003 131.328 234.667 130.236 234.026L9.04674 162.409C6.30504 160.806 4.02484 158.49 2.43655 155.695C0.84825 152.9 0.00813709 149.725 0.00109887 146.491V7.47336C-0.021255 6.16529 0.297802 4.87484 0.925285 3.73544C1.55277 2.59604 2.4659 1.64905 3.57027 0.992353C4.67465 0.335655 5.93018 -0.00689962 7.20705 0.000105316C8.48393 0.00711026 9.7358 0.36342 10.8332 1.0322V1.0322Z" fill="#F4F4F4"/>
</svg>
