<svg width="141" height="235" viewBox="0 0 141 235" fill="none" xmlns="http://www.w3.org/2000/svg">
<path d="M10.7703 234.009L131.95 162.306C134.686 160.688 136.96 158.366 138.548 155.57C140.136 152.774 140.981 149.601 141 146.366V7.36169C141.003 6.0699 140.673 4.80016 140.044 3.68057C139.415 2.56099 138.508 1.63118 137.416 0.984971C136.323 0.338759 135.084 -0.000992499 133.822 2.17779e-06C132.561 0.000996854 131.322 0.342702 130.23 0.990636L9.05083 72.6012C6.30603 74.2076 4.02385 76.5273 2.43482 79.326C0.845788 82.1247 0.00618372 85.3032 0.000815668 88.5404V227.545C-0.0183249 228.845 0.299709 230.126 0.922442 231.259C1.54517 232.392 2.4503 233.335 3.54538 233.992C4.64046 234.649 5.88628 234.997 7.1556 235C8.42493 235.003 9.6723 234.661 10.7703 234.009V234.009Z" fill="#D7D7D7"/>
</svg>
