<svg width="60" height="60" viewBox="0 0 60 60" fill="none" xmlns="http://www.w3.org/2000/svg">
<g id="success" clip-path="url(#clip0_70_275)">
<path id="Vector" d="M30 0C37.9565 0 45.5871 3.1607 51.2132 8.7868C56.8393 14.4129 60 22.0435 60 30C60 37.9565 56.8393 45.5871 51.2132 51.2132C45.5871 56.8393 37.9565 60 30 60C22.0435 60 14.4129 56.8393 8.7868 51.2132C3.1607 45.5871 0 37.9565 0 30C0 22.0435 3.1607 14.4129 8.7868 8.7868C14.4129 3.1607 22.0435 0 30 0ZM26.2629 35.9186L19.5986 29.25C19.3597 29.0111 19.076 28.8216 18.7639 28.6923C18.4517 28.563 18.1172 28.4964 17.7793 28.4964C17.4414 28.4964 17.1068 28.563 16.7947 28.6923C16.4825 28.8216 16.1989 29.0111 15.96 29.25C15.4775 29.7325 15.2064 30.3869 15.2064 31.0693C15.2064 31.7516 15.4775 32.4061 15.96 32.8886L24.4457 41.3743C24.684 41.6144 24.9674 41.805 25.2796 41.935C25.5919 42.0651 25.9268 42.132 26.265 42.132C26.6032 42.132 26.9381 42.0651 27.2504 41.935C27.5626 41.805 27.846 41.6144 28.0843 41.3743L45.6557 23.7986C45.8978 23.5606 46.0904 23.2771 46.2224 22.9644C46.3544 22.6517 46.4232 22.3159 46.4247 21.9765C46.4263 21.637 46.3607 21.3007 46.2316 20.9867C46.1025 20.6728 45.9126 20.3875 45.6727 20.1473C45.4328 19.9072 45.1478 19.7169 44.834 19.5874C44.5202 19.458 44.1839 19.3919 43.8444 19.3931C43.505 19.3943 43.1691 19.4627 42.8562 19.5943C42.5434 19.7259 42.2596 19.9182 42.0214 20.16L26.2629 35.9186Z" fill="#6FCF97"/>
</g>
<defs>
<clipPath id="clip0_70_275">
<rect width="60" height="60" fill="white"/>
</clipPath>
</defs>
</svg>
